Coordinates
version=1
nRows=8
nColumns=60
inDegrees=yes

Units are S.I. units (second, meters, Newtons, ...)
If the header above contains a line with 'inDegrees', this indicates whether rotational values are in degrees (yes) or radians (no).

endheader
time	pelvis_tilt	pelvis_list	pelvis_rotation	pelvis_tx	pelvis_ty	pelvis_tz	hip_flexion_r	hip_adduction_r	hip_rotation_r	knee_angle_r_beta	knee_angle_r	ankle_angle_r	subtalar_angle_r	mtp_angle_r	hip_flexion_l	hip_adduction_l	hip_rotation_l	knee_angle_l_beta	knee_angle_l	ankle_angle_l	subtalar_angle_l	mtp_angle_l	L5_S1_Flex_Ext	L5_S1_Lat_Bending	L5_S1_axial_rotation	L4_L5_Flex_Ext	L4_L5_Lat_Bending	L4_L5_axial_rotation	L3_L4_Flex_Ext	L3_L4_Lat_Bending	L3_L4_axial_rotation	L2_L3_Flex_Ext	L2_L3_Lat_Bending	L2_L3_axial_rotation	L1_L2_Flex_Ext	L1_L2_Lat_Bending	L1_L2_axial_rotation	L1_T12_Flex_Ext	L1_T12_Lat_Bending	L1_T12_axial_rotation	Abs_r3	Abs_r2	Abs_r1	Abs_t1	Abs_t2	arm_flex_r	arm_add_r	arm_rot_r	elbow_flex_r	pro_sup_r	wrist_flex_r	wrist_dev_r	arm_flex_l	arm_add_l	arm_rot_l	elbow_flex_l	pro_sup_l	wrist_flex_l	wrist_dev_l
      7.78000000	      0.20108946	      6.00223134	     93.02744626	      0.39164005	      0.93444122	      0.33222111	      7.29813420	     -5.13517807	     -0.76102566	      0.28534945	    -16.34931896	      6.56193883	      0.00000000	      0.00000000	      8.42123190	     -4.95406007	      0.31816045	      0.28567393	    -16.36791060	      7.89493561	      0.00000000	      0.00000000	     -8.38101815	      0.13014396	     -0.21223517	    -15.56438881	      0.17309147	     -0.22549987	    -13.76917472	      0.31643202	     -0.22549987	     -9.57866565	      0.31643202	     -0.18570577	     -7.78261346	      0.26538956	     -0.17244107	     -4.78891377	      0.20159299	     -0.15917638	    -59.86477455	      1.47221450	     -1.18038834	      0.00000000	      0.00000000	     16.61565268	    -27.21074141	      6.38251840	    102.05481442	     76.02376743	    -27.59745939	     50.84392191	     19.71300794	    -25.06262347	     11.41137858	    100.39718991	     76.43199978	    -29.49857532	     50.53541797
      7.79000000	      0.23422782	      5.89106810	     92.95741978	      0.39175354	      0.93403037	      0.33498094	      7.80239176	     -5.09321244	     -0.45005484	      0.29186830	    -16.72282194	      6.28397531	      0.00000000	      0.00000000	      8.89294809	     -4.96383631	      0.55432622	      0.29224541	    -16.74442831	      7.57706932	      0.00000000	      0.00000000	     -8.49392798	      0.13136290	     -0.19758072	    -15.77407364	      0.17471266	     -0.20992951	    -13.95467427	      0.31939576	     -0.20992951	     -9.70771028	      0.31939576	     -0.17288313	     -7.88746152	      0.26787523	     -0.16053433	     -4.85343045	      0.20348114	     -0.14818554	    -60.67127814	      1.48600343	     -1.09888468	      0.00000000	      0.00000000	     17.48534670	    -27.03222728	      6.66422850	    101.17810499	     75.94531400	    -27.44875043	     50.28632149	     20.52251356	    -24.92436492	     11.63066388	     99.44178098	     76.12285242	    -29.28709650	     49.79418921
      7.80000000	      0.27825229	      5.47031721	     92.87618160	      0.39181247	      0.93310248	      0.33767304	      8.58107513	     -5.07733777	     -0.34577825	      0.29556283	    -16.93450273	      6.06762450	      0.00000000	      0.00000000	      9.64190540	     -4.98905886	      0.47411597	      0.29570951	    -16.94290705	      7.31435376	      0.00000000	      0.00000000	     -8.55210068	      0.13387104	     -0.18503518	    -15.88210617	      0.17804848	     -0.19659988	    -14.05024620	      0.32549404	     -0.19659988	     -9.77419586	      0.32549404	     -0.16190578	     -7.94148069	      0.27298982	     -0.15034108	     -4.88667033	      0.20736623	     -0.13877638	    -61.08679992	      1.51437594	     -1.02911016	      0.00000000	      0.00000000	     18.39798522	    -27.00014433	      7.19218460	    100.19725807	     75.69660857	    -27.45495730	     49.60974769	     21.36161936	    -24.94230023	     12.10213102	     98.33580392	     75.50600172	    -29.21966360	     48.81580007
      7.81000000	      0.29215330	      5.10660745	     92.84710000	      0.39176224	      0.93219132	      0.34030205	      9.13970069	     -5.09978165	     -0.34740967	      0.29390923	    -16.83975824	      6.09698526	      0.00000000	      0.00000000	     10.18437552	     -4.96666721	      0.46242659	      0.29412081	    -16.85188081	      7.33321795	      0.00000000	      0.00000000	     -8.67206358	      0.13539151	     -0.17729916	    -16.10488927	      0.18007070	     -0.18838035	    -14.24733325	      0.32919091	     -0.18838035	     -9.91130146	      0.32919091	     -0.15513676	     -8.05287824	      0.27609036	     -0.14405557	     -4.95521713	      0.20972144	     -0.13297437	    -61.94368292	      1.53157579	     -0.98608472	      0.00000000	      0.00000000	     19.03677744	    -26.93714917	      7.19248882	    100.07134928	     75.73130042	    -27.40678072	     49.42300587	     21.99587734	    -24.88539573	     12.08998907	     98.18339554	     75.49840088	    -29.14052265	     48.59427432
      7.82000000	      0.33237011	      4.47611120	     92.73433431	      0.39192183	      0.93086367	      0.34311818	     10.29461579	     -5.06605732	     -0.01819522	      0.30258531	    -17.33686139	      5.85464143	      0.00000000	      0.00000000	     11.27556828	     -4.98618259	      0.46093546	      0.30188406	    -17.29668260	      6.99898457	      0.00000000	      0.00000000	     -8.67221315	      0.13637918	     -0.15935311	    -16.10516704	      0.18138431	     -0.16931268	    -14.24757899	      0.33159233	     -0.16931268	     -9.91147241	      0.33159233	     -0.13943397	     -8.05301713	      0.27810442	     -0.12947440	     -4.95530259	      0.21125135	     -0.11951483	    -61.94475131	      1.54274853	     -0.88627417	      0.00000000	      0.00000000	     20.20554014	    -27.15037230	      8.27803423	     98.60774566	     75.04923138	    -27.67624782	     48.12680848	     23.18816783	    -25.23859581	     13.31936618	     96.46685720	     74.07201198	    -29.36877177	     46.72996850
      7.83000000	      0.35555069	      4.11218474	     92.65508482	      0.39202391	      0.92993080	      0.34580748	     11.02406221	     -5.05187572	      0.13142665	      0.30687196	    -17.58246817	      5.72172959	      0.00000000	      0.00000000	     11.94548412	     -4.99733187	      0.45546678	      0.30510590	    -17.48128031	      6.82137430	      0.00000000	      0.00000000	     -8.75508468	      0.13712766	     -0.13957429	    -16.25906776	      0.18237979	     -0.14829769	    -14.38372862	      0.33341220	     -0.14829769	    -10.00618628	      0.33341220	     -0.12212751	     -8.12997163	      0.27963073	     -0.11340411	     -5.00265539	      0.21241075	     -0.10468072	    -62.53669435	      1.55121554	     -0.77627035	      0.00000000	      0.00000000	     21.22976173	    -27.14690024	      8.71515453	     97.79235665	     74.80007438	    -27.71442038	     47.59509689	     24.28275015	    -25.28631665	     13.88184458	     95.46305483	     73.43009770	    -29.33183569	     45.89874133
      7.84000000	      0.37406136	      3.90566290	     92.59051579	      0.39211973	      0.92922845	      0.34849911	     11.58011781	     -5.03058759	      0.31668344	      0.31130497	    -17.83646097	      5.56168515	      0.00000000	      0.00000000	     12.43663164	     -5.00409816	      0.54727836	      0.30829984	    -17.66427952	      6.65597613	      0.00000000	      0.00000000	     -8.87384911	      0.13777732	     -0.12569084	    -16.47962518	      0.18324383	     -0.13354652	    -14.57884670	      0.33499176	     -0.13354652	    -10.14192215	      0.33499176	     -0.10997949	     -8.24025628	      0.28095550	     -0.10212381	     -5.07051738	      0.21341706	     -0.09426813	    -63.38501682	      1.55856454	     -0.69905475	      0.00000000	      0.00000000	     22.33785841	    -27.01232403	      8.95842352	     97.10097928	     74.71861927	    -27.63121179	     47.40733851	     25.37755113	    -25.17377396	     14.09134898	     94.66237838	     73.14637065	    -29.12971970	     45.55285474
      7.85000000	      0.38016117	      3.59198980	     92.51921228	      0.39220879	      0.92834773	      0.35114984	     12.27311951	     -5.02943635	      0.43765700	      0.31629622	    -18.12243828	      5.40290873	      0.00000000	      0.00000000	     13.04657276	     -4.99617968	      0.52397450	      0.31139083	    -17.84138059	      6.49763467	      0.00000000	      0.00000000	     -8.95868762	      0.13732440	     -0.11414763	    -16.63717877	      0.18264145	     -0.12128185	    -14.71822788	      0.33389054	     -0.12128185	    -10.23888408	      0.33389054	     -0.09987917	     -8.31903732	      0.28003191	     -0.09274495	     -5.11899410	      0.21271549	     -0.08561072	    -63.99100977	      1.55344105	     -0.63485485	      0.00000000	      0.00000000	     23.59518285	    -26.95903991	      9.49344077	     96.10779425	     74.43431969	    -27.65239840	     47.00259129	     26.62402942	    -25.15324997	     14.59912240	     93.49707746	     72.51781262	    -28.97903176	     44.87733693
